<svg width="150" height="150" viewBox="0 0 150 150" fill="none" xmlns="http://www.w3.org/2000/svg">
<g clip-path="url(#clip0_4933_274)">
<path d="M132.915 31.2705L83.9148 2.9805C81.4248 1.542 78.2598 0.75 75.0018 0.75C71.7423 0.75 68.5773 1.542 66.0873 2.9805L17.0883 31.2705C11.9238 34.254 8.17383 40.7475 8.17383 46.71V103.29C8.17383 109.254 11.9238 115.747 17.0883 118.731L66.0873 147.021C68.5773 148.459 71.7438 149.251 75.0018 149.251C78.2598 149.251 81.4248 148.459 83.9148 147.021L132.914 118.731C138.078 115.749 141.827 109.257 141.827 103.29V46.71C141.828 40.7445 138.08 34.251 132.915 31.2705ZM38.9163 91.3305L62.9448 104.467L71.3103 122.391C60.7068 121.576 51.0783 117.283 43.5618 110.65L38.9163 91.3305ZM67.5828 99.8295L75.0003 88.5975L75.0963 88.4505L82.6113 99.8295L75.0963 117.006L75.0003 116.785L67.5828 99.8295ZM87.0543 104.467L111.083 91.3305L106.437 110.65C98.9223 117.283 89.2938 121.576 78.6888 122.391L87.0543 104.467ZM75.0003 83.889H27.7563L27.4668 81.957H75.0003H122.534L122.244 83.889H75.0003ZM75.0003 75H27.4668C27.4668 48.747 48.7488 27.4665 75.0003 27.465C101.252 27.465 122.534 48.747 122.534 75H75.0003ZM15.3228 46.71C15.3228 43.3185 17.7243 39.159 20.6613 37.464L69.6603 9.174C71.1288 8.3265 73.0638 7.902 74.9988 7.902V19.35C44.2653 19.35 19.3503 44.265 19.3488 75H15.3213V46.71H15.3228ZM134.678 103.29C134.678 106.68 132.276 110.841 129.339 112.536L80.3403 140.826C78.8718 141.673 76.9368 142.098 75.0018 142.098V130.65C105.735 130.65 130.65 105.735 130.65 75.0015C130.65 75.0015 130.65 75.0015 130.65 75H134.678V103.29Z" fill="white"/>
<path d="M50.5911 61.2578H42.8271V63.0428H44.6496V71.9963H42.8271V73.7813H50.4891C51.2076 73.7813 51.7806 73.6088 52.2051 73.2653C52.6296 72.9218 52.8426 72.4523 52.8426 71.8568V63.3308C52.8411 61.9493 52.0911 61.2578 50.5911 61.2578ZM50.0796 71.4683C50.0796 71.8208 49.9161 71.9978 49.5861 71.9978H47.4201V63.0443H49.6236C49.9266 63.0443 50.0796 63.2243 50.0796 63.5828V71.4683Z" fill="white"/>
<path d="M58.9027 65.9326H59.7952V71.9851C59.7952 72.3196 59.6302 72.4876 59.3017 72.4876H57.9157C57.5617 72.4876 57.3862 72.3166 57.3862 71.9761V64.3516H53.8057V65.9326H54.6982V71.7061C54.6982 72.3331 54.8977 72.8341 55.2982 73.2121C55.6987 73.5901 56.2702 73.7791 57.0142 73.7791H60.2872C61.7497 73.7791 62.4817 73.0876 62.4817 71.7061V64.3516H58.9012V65.9326H58.9027Z" fill="white"/>
<path d="M69.1399 64.3555H65.9134C65.2744 64.3555 64.7479 64.504 64.3324 64.801C63.8494 65.149 63.6064 65.647 63.6064 66.298V71.71C63.6064 72.343 63.7924 72.838 64.1644 73.198C64.5544 73.588 65.1184 73.7845 65.8564 73.7845H69.0274C69.7594 73.7845 70.3354 73.612 70.7569 73.2685C71.1784 72.925 71.3899 72.4555 71.3899 71.86V70.6975H68.6929V71.962C68.6929 72.3145 68.5309 72.4915 68.2099 72.4915H66.8239C66.4774 72.4915 66.3034 72.3205 66.3034 71.9785V66.2065C66.3034 65.833 66.4639 65.647 66.7864 65.647H68.2459C68.5429 65.647 68.6914 65.8315 68.6914 66.199V67.4515H71.3884V66.4285C71.3899 65.0455 70.6399 64.3555 69.1399 64.3555Z" fill="white"/>
<path d="M77.1916 65.9348H78.6466L75.8716 68.6843V61.2578H75.0001H72.4411H72.3016H63.7651H63.6076H53.8066V63.0443H63.6076H63.7651H72.3016H72.4411H73.1941V71.9978H72.3016V73.7828H75.0001H76.7461V71.9978H75.8716V70.7513L76.9486 69.6863L78.7726 71.9978H77.5366V73.7828H81.7291V71.9978H80.7091L77.9986 68.6453L80.7346 65.9348H81.7291V64.3553H77.1916V65.9348Z" fill="white"/>
<path d="M82.6501 61.2578H76.7461V63.0443H82.6501H82.7251H84.4726V71.9978H82.6501V73.7828H89.0656V71.9978H87.2431V68.2688H88.1086V69.0683H89.4376V65.7398H88.1086V66.5768H87.2431V63.0443H92.1811V61.2578H82.7251H82.6501Z" fill="white"/>
<path d="M96.7095 61.5278C96.27 61.3478 95.727 61.2578 95.082 61.2578C94.443 61.2578 93.909 61.3478 93.4785 61.5278C93.048 61.7078 92.832 61.9283 92.832 62.1878C92.832 62.4428 93.048 62.6588 93.4785 62.8388C93.909 63.0188 94.4445 63.1088 95.082 63.1088C95.739 63.1088 96.285 63.0188 96.7185 62.8388C97.152 62.6588 97.3695 62.4428 97.3695 62.1878C97.3695 61.9283 97.149 61.7078 96.7095 61.5278Z" fill="white"/>
<path d="M92.8701 65.935H93.7626V71.998H92.8701V73.783H97.3146V71.998H96.4401V65.935H97.3146V64.3555H92.8701V65.935Z" fill="white"/>
<path d="M105.31 66.268C105.31 64.993 104.635 64.3555 103.284 64.3555H100.354C98.8289 64.3555 98.0669 64.975 98.0669 66.2155V67.396H100.764V66.085C100.764 65.806 100.912 65.6665 101.209 65.6665H102.232C102.492 65.6665 102.622 65.818 102.622 66.1225V68.1595H100.056C98.7299 68.1595 98.0654 68.701 98.0654 69.784V71.8255C98.0654 72.376 98.2364 72.832 98.5769 73.1905C98.9489 73.5865 99.4604 73.7845 100.111 73.7845H106.006V71.9995H105.309V66.268H105.31ZM102.622 72.4915H101.311C100.945 72.4915 100.762 72.3055 100.762 71.9335V69.655C100.762 69.3445 100.936 69.19 101.283 69.19H102.622V72.4915Z" fill="white"/>
<path d="M107.031 61.2578H98.0674V63.0428H107.031V61.2578Z" fill="white"/>
<path d="M99.9113 59.6934L86.7173 33.7734L75.0008 45.7719L74.9288 45.8454L63.1403 33.7734L49.9463 59.6934H75.0008H99.9113Z" fill="white"/>
</g>
<defs>
<clipPath id="clip0_4933_274">
<rect width="150" height="150" fill="white"/>
</clipPath>
</defs>
</svg>
